<?xml version="1.0" encoding="utf-8" standalone="no"?>
<!DOCTYPE svg PUBLIC "-//W3C//DTD SVG 1.1//EN"
  "http://www.w3.org/Graphics/SVG/1.1/DTD/svg11.dtd">
<svg xmlns:xlink="http://www.w3.org/1999/xlink" width="405pt" height="236.16pt" viewBox="0 0 405 236.16" xmlns="http://www.w3.org/2000/svg" version="1.1">
 <defs>
  <style type="text/css">*{stroke-linejoin: round; stroke-linecap: butt}</style>
 </defs>
 <g id="figure_1" fill="#2C2C2C">
  <g id="axes_1">
   <g id="text_1">
    <!-- テ -->
    <g transform="translate(39.38 165.68) scale(1.7 -1.7)">
     <defs>
      <path id="NotoSerifCJKjp-Bold-30c6" d="M 2464 3987
C 3002 3987 4032 4160 4544 4275
C 4749 4320 4806 4403 4806 4531
C 4806 4787 4538 4922 4115 4922
C 4026 4922 3930 4832 3616 4749
C 3347 4678 2854 4550 2387 4550
C 2176 4550 1952 4576 1690 4736
L 1626 4678
C 1856 4224 2061 3987 2464 3987
z
M 1376 2368
C 1562 2374 1792 2483 2010 2554
C 2214 2618 2675 2720 3098 2784
C 3142 2714 3155 2637 3155 2566
C 3155 2067 2669 653 1274 -301
L 1370 -416
C 2810 198 3450 1165 3770 1894
C 3910 2208 4077 2278 4077 2438
C 4077 2579 3923 2714 3693 2854
C 4128 2899 4538 2918 4819 2918
C 5184 2918 5510 2848 5651 2848
C 5824 2848 5920 2899 5920 3110
C 5920 3366 5491 3578 5088 3578
C 5024 3578 4890 3501 4454 3450
C 3590 3354 1715 3072 1280 3072
C 1082 3072 966 3194 800 3347
L 723 3315
C 710 3162 717 3008 762 2893
C 838 2675 1158 2368 1376 2368
z
" transform="scale(0.015625)"/>
     </defs>
     <use xlink:href="#NotoSerifCJKjp-Bold-30c6"/>
    </g>
   </g>
   <g id="text_2">
    <!-- ラ -->
    <g transform="translate(195.62 165.68) scale(1.7 -1.7)">
     <defs>
      <path id="NotoSerifCJKjp-Bold-30e9" d="M 1427 -250
L 1498 -378
C 3392 179 4454 1267 5050 2387
C 5190 2650 5485 2746 5485 2918
C 5485 3168 4934 3610 4672 3610
C 4531 3610 4442 3475 4205 3437
C 3718 3347 2099 3142 1709 3142
C 1466 3142 1344 3264 1158 3456
L 1062 3411
C 1056 3258 1069 3142 1114 2995
C 1178 2797 1498 2406 1766 2406
C 1907 2406 2029 2528 2221 2579
C 2624 2701 3923 2957 4269 2970
C 4346 2976 4371 2944 4346 2861
C 3981 1824 3002 576 1427 -250
z
M 2464 4038
C 3014 4038 3942 4198 4454 4320
C 4659 4365 4730 4454 4730 4582
C 4730 4838 4448 4966 4019 4966
C 3930 4966 3834 4883 3514 4794
C 3245 4717 2867 4608 2394 4608
C 2176 4608 1952 4634 1690 4800
L 1619 4742
C 1850 4275 2061 4038 2464 4038
z
" transform="scale(0.015625)"/>
     </defs>
     <use xlink:href="#NotoSerifCJKjp-Bold-30e9"/>
    </g>
   </g>
  </g>
 </g>
</svg>
